<mxfile host="65bd71144e">
    <diagram name="Page-1" id="nOcECdK3-IECKR9cG2CB">
        <mxGraphModel dx="728" dy="254" grid="1" gridSize="10" guides="1" tooltips="1" connect="1" arrows="1" fold="1" page="1" pageScale="1" pageWidth="827" pageHeight="1169" math="0" shadow="0">
            <root>
                <mxCell id="0"/>
                <mxCell id="1" parent="0"/>
                <mxCell id="-m94468hQOehgDGmweYX-1" value="Email Client&lt;br&gt;Sender" style="shape=umlLifeline;perimeter=lifelinePerimeter;whiteSpace=wrap;html=1;container=1;dropTarget=0;collapsible=0;recursiveResize=0;outlineConnect=0;portConstraint=eastwest;newEdgeStyle={&quot;curved&quot;:0,&quot;rounded&quot;:0};" parent="1" vertex="1">
                    <mxGeometry x="80" y="40" width="100" height="240" as="geometry"/>
                </mxCell>
                <mxCell id="-m94468hQOehgDGmweYX-2" value="Email Server" style="shape=umlLifeline;perimeter=lifelinePerimeter;whiteSpace=wrap;html=1;container=1;dropTarget=0;collapsible=0;recursiveResize=0;outlineConnect=0;portConstraint=eastwest;newEdgeStyle={&quot;curved&quot;:0,&quot;rounded&quot;:0};" parent="1" vertex="1">
                    <mxGeometry x="320" y="40" width="100" height="240" as="geometry"/>
                </mxCell>
                <mxCell id="-m94468hQOehgDGmweYX-4" value="" style="html=1;points=[[0,0,0,0,5],[0,1,0,0,-5],[1,0,0,0,5],[1,1,0,0,-5]];perimeter=orthogonalPerimeter;outlineConnect=0;targetShapes=umlLifeline;portConstraint=eastwest;newEdgeStyle={&quot;curved&quot;:0,&quot;rounded&quot;:0};" parent="-m94468hQOehgDGmweYX-2" vertex="1">
                    <mxGeometry x="45" y="60" width="10" height="40" as="geometry"/>
                </mxCell>
                <mxCell id="-m94468hQOehgDGmweYX-7" value="" style="html=1;points=[[0,0,0,0,5],[0,1,0,0,-5],[1,0,0,0,5],[1,1,0,0,-5]];perimeter=orthogonalPerimeter;outlineConnect=0;targetShapes=umlLifeline;portConstraint=eastwest;newEdgeStyle={&quot;curved&quot;:0,&quot;rounded&quot;:0};" parent="-m94468hQOehgDGmweYX-2" vertex="1">
                    <mxGeometry x="45" y="178" width="10" height="22" as="geometry"/>
                </mxCell>
                <mxCell id="-m94468hQOehgDGmweYX-3" value="Email Client&lt;br&gt;Receiver" style="shape=umlLifeline;perimeter=lifelinePerimeter;whiteSpace=wrap;html=1;container=1;dropTarget=0;collapsible=0;recursiveResize=0;outlineConnect=0;portConstraint=eastwest;newEdgeStyle={&quot;curved&quot;:0,&quot;rounded&quot;:0};" parent="1" vertex="1">
                    <mxGeometry x="520" y="40" width="100" height="240" as="geometry"/>
                </mxCell>
                <mxCell id="-m94468hQOehgDGmweYX-8" value="" style="html=1;points=[[0,0,0,0,5],[0,1,0,0,-5],[1,0,0,0,5],[1,1,0,0,-5]];perimeter=orthogonalPerimeter;outlineConnect=0;targetShapes=umlLifeline;portConstraint=eastwest;newEdgeStyle={&quot;curved&quot;:0,&quot;rounded&quot;:0};" parent="-m94468hQOehgDGmweYX-3" vertex="1">
                    <mxGeometry x="45" y="180" width="10" height="20" as="geometry"/>
                </mxCell>
                <mxCell id="-m94468hQOehgDGmweYX-5" value="sends" style="html=1;verticalAlign=bottom;endArrow=block;curved=0;rounded=0;entryX=0;entryY=0;entryDx=0;entryDy=5;" parent="1" source="-m94468hQOehgDGmweYX-1" target="-m94468hQOehgDGmweYX-4" edge="1">
                    <mxGeometry relative="1" as="geometry">
                        <mxPoint x="295" y="105" as="sourcePoint"/>
                    </mxGeometry>
                </mxCell>
                <mxCell id="-m94468hQOehgDGmweYX-6" value="200" style="html=1;verticalAlign=bottom;endArrow=open;dashed=1;endSize=8;curved=0;rounded=0;exitX=0;exitY=1;exitDx=0;exitDy=-5;" parent="1" edge="1">
                    <mxGeometry relative="1" as="geometry">
                        <mxPoint x="129.5" y="137" as="targetPoint"/>
                        <mxPoint x="365" y="137" as="sourcePoint"/>
                    </mxGeometry>
                </mxCell>
                <mxCell id="-m94468hQOehgDGmweYX-9" value="dispatch" style="html=1;verticalAlign=bottom;endArrow=block;curved=0;rounded=0;entryX=0;entryY=0;entryDx=0;entryDy=5;" parent="1" edge="1">
                    <mxGeometry relative="1" as="geometry">
                        <mxPoint x="380" y="221" as="sourcePoint"/>
                        <mxPoint x="565" y="221" as="targetPoint"/>
                    </mxGeometry>
                </mxCell>
                <mxCell id="-m94468hQOehgDGmweYX-10" value="" style="html=1;verticalAlign=bottom;endArrow=open;dashed=1;endSize=8;curved=0;rounded=0;" parent="1" source="-m94468hQOehgDGmweYX-8" target="-m94468hQOehgDGmweYX-7" edge="1">
                    <mxGeometry relative="1" as="geometry">
                        <mxPoint x="495" y="295" as="targetPoint"/>
                        <Array as="points">
                            <mxPoint x="470" y="240"/>
                        </Array>
                    </mxGeometry>
                </mxCell>
                <mxCell id="-m94468hQOehgDGmweYX-21" style="edgeStyle=orthogonalEdgeStyle;rounded=0;orthogonalLoop=1;jettySize=auto;html=1;entryX=0;entryY=0.5;entryDx=0;entryDy=0;" parent="1" source="-m94468hQOehgDGmweYX-11" target="-m94468hQOehgDGmweYX-12" edge="1">
                    <mxGeometry relative="1" as="geometry"/>
                </mxCell>
                <mxCell id="-m94468hQOehgDGmweYX-26" value="1" style="edgeLabel;html=1;align=center;verticalAlign=middle;resizable=0;points=[];" parent="-m94468hQOehgDGmweYX-21" connectable="0" vertex="1">
                    <mxGeometry x="0.12" relative="1" as="geometry">
                        <mxPoint as="offset"/>
                    </mxGeometry>
                </mxCell>
                <mxCell id="-m94468hQOehgDGmweYX-11" value="LBR" style="rounded=0;whiteSpace=wrap;html=1;" parent="1" vertex="1">
                    <mxGeometry x="130" y="360" width="50" height="200" as="geometry"/>
                </mxCell>
                <mxCell id="-m94468hQOehgDGmweYX-15" value="Client" style="shape=umlActor;verticalLabelPosition=bottom;verticalAlign=top;html=1;outlineConnect=0;" parent="1" vertex="1">
                    <mxGeometry x="10" y="400" width="30" height="60" as="geometry"/>
                </mxCell>
                <mxCell id="-m94468hQOehgDGmweYX-18" style="edgeStyle=orthogonalEdgeStyle;rounded=0;orthogonalLoop=1;jettySize=auto;html=1;" parent="1" source="-m94468hQOehgDGmweYX-15" edge="1">
                    <mxGeometry relative="1" as="geometry">
                        <mxPoint x="130" y="430" as="targetPoint"/>
                    </mxGeometry>
                </mxCell>
                <mxCell id="-m94468hQOehgDGmweYX-19" value="&amp;nbsp; &amp;nbsp;TLS" style="edgeLabel;html=1;align=center;verticalAlign=middle;resizable=0;points=[];" parent="-m94468hQOehgDGmweYX-18" connectable="0" vertex="1">
                    <mxGeometry x="-0.5" y="4" relative="1" as="geometry">
                        <mxPoint y="-6" as="offset"/>
                    </mxGeometry>
                </mxCell>
                <mxCell id="-m94468hQOehgDGmweYX-20" value="" style="group" parent="1" connectable="0" vertex="1">
                    <mxGeometry x="280" y="390" width="160" height="100" as="geometry"/>
                </mxCell>
                <mxCell id="-m94468hQOehgDGmweYX-12" value="smtp server" style="rounded=0;whiteSpace=wrap;html=1;" parent="-m94468hQOehgDGmweYX-20" vertex="1">
                    <mxGeometry y="40" width="120" height="60" as="geometry"/>
                </mxCell>
                <mxCell id="-m94468hQOehgDGmweYX-13" value="" style="rounded=0;whiteSpace=wrap;html=1;" parent="-m94468hQOehgDGmweYX-20" vertex="1">
                    <mxGeometry x="40" width="120" height="60" as="geometry"/>
                </mxCell>
                <mxCell id="-m94468hQOehgDGmweYX-31" style="edgeStyle=orthogonalEdgeStyle;rounded=0;orthogonalLoop=1;jettySize=auto;html=1;" parent="1" target="-m94468hQOehgDGmweYX-30" edge="1">
                    <mxGeometry relative="1" as="geometry">
                        <mxPoint x="490" y="460" as="sourcePoint"/>
                    </mxGeometry>
                </mxCell>
                <mxCell id="-m94468hQOehgDGmweYX-32" value="2" style="edgeLabel;html=1;align=center;verticalAlign=middle;resizable=0;points=[];" parent="-m94468hQOehgDGmweYX-31" connectable="0" vertex="1">
                    <mxGeometry x="-0.0644" relative="1" as="geometry">
                        <mxPoint x="-20" as="offset"/>
                    </mxGeometry>
                </mxCell>
                <mxCell id="-m94468hQOehgDGmweYX-33" value="push metadata&lt;br&gt;(status - U)" style="edgeLabel;html=1;align=center;verticalAlign=middle;resizable=0;points=[];" parent="-m94468hQOehgDGmweYX-31" connectable="0" vertex="1">
                    <mxGeometry x="0.1579" y="-2" relative="1" as="geometry">
                        <mxPoint x="42" y="-9" as="offset"/>
                    </mxGeometry>
                </mxCell>
                <mxCell id="-m94468hQOehgDGmweYX-30" value="" style="shape=cylinder3;whiteSpace=wrap;html=1;boundedLbl=1;backgroundOutline=1;size=15;" parent="1" vertex="1">
                    <mxGeometry x="460" y="545" width="60" height="80" as="geometry"/>
                </mxCell>
                <mxCell id="-m94468hQOehgDGmweYX-36" value="" style="group" parent="1" connectable="0" vertex="1">
                    <mxGeometry x="580" y="630" width="120" height="250" as="geometry"/>
                </mxCell>
                <mxCell id="-m94468hQOehgDGmweYX-28" value="" style="group" parent="-m94468hQOehgDGmweYX-36" connectable="0" vertex="1">
                    <mxGeometry y="30" width="120" height="220" as="geometry"/>
                </mxCell>
                <mxCell id="-m94468hQOehgDGmweYX-22" value="Blob" style="rounded=0;whiteSpace=wrap;html=1;" parent="-m94468hQOehgDGmweYX-28" vertex="1">
                    <mxGeometry width="120" height="220" as="geometry"/>
                </mxCell>
                <mxCell id="-m94468hQOehgDGmweYX-23" value="temp containers" style="rounded=0;whiteSpace=wrap;html=1;" parent="-m94468hQOehgDGmweYX-28" vertex="1">
                    <mxGeometry x="10" y="30" width="100" height="40" as="geometry"/>
                </mxCell>
                <mxCell id="-m94468hQOehgDGmweYX-24" value="sanitized containers" style="rounded=0;whiteSpace=wrap;html=1;" parent="-m94468hQOehgDGmweYX-28" vertex="1">
                    <mxGeometry x="10" y="140" width="100" height="40" as="geometry"/>
                </mxCell>
                <mxCell id="-m94468hQOehgDGmweYX-35" value="encrypted storage for text &amp;amp; attachment" style="text;html=1;align=center;verticalAlign=middle;whiteSpace=wrap;rounded=0;" parent="-m94468hQOehgDGmweYX-36" vertex="1">
                    <mxGeometry width="120" height="30" as="geometry"/>
                </mxCell>
                <mxCell id="-m94468hQOehgDGmweYX-25" style="edgeStyle=orthogonalEdgeStyle;rounded=0;orthogonalLoop=1;jettySize=auto;html=1;" parent="1" source="-m94468hQOehgDGmweYX-12" target="-m94468hQOehgDGmweYX-23" edge="1">
                    <mxGeometry relative="1" as="geometry">
                        <mxPoint x="620" y="440" as="targetPoint"/>
                    </mxGeometry>
                </mxCell>
                <mxCell id="-m94468hQOehgDGmweYX-27" value="2" style="edgeLabel;html=1;align=center;verticalAlign=middle;resizable=0;points=[];" parent="-m94468hQOehgDGmweYX-25" connectable="0" vertex="1">
                    <mxGeometry x="0.4133" y="1" relative="1" as="geometry">
                        <mxPoint as="offset"/>
                    </mxGeometry>
                </mxCell>
                <mxCell id="-m94468hQOehgDGmweYX-29" value="push as chunk" style="edgeLabel;html=1;align=center;verticalAlign=middle;resizable=0;points=[];" parent="-m94468hQOehgDGmweYX-25" connectable="0" vertex="1">
                    <mxGeometry x="-0.2985" y="-1" relative="1" as="geometry">
                        <mxPoint x="125" y="59" as="offset"/>
                    </mxGeometry>
                </mxCell>
                <mxCell id="-m94468hQOehgDGmweYX-37" value="topic - to sanitize" style="rounded=0;whiteSpace=wrap;html=1;" parent="1" vertex="1">
                    <mxGeometry x="320" y="680" width="120" height="40" as="geometry"/>
                </mxCell>
                <mxCell id="-m94468hQOehgDGmweYX-39" style="edgeStyle=orthogonalEdgeStyle;rounded=0;orthogonalLoop=1;jettySize=auto;html=1;entryX=0;entryY=0.5;entryDx=0;entryDy=0;" parent="1" source="-m94468hQOehgDGmweYX-38" target="-m94468hQOehgDGmweYX-37" edge="1">
                    <mxGeometry relative="1" as="geometry"/>
                </mxCell>
                <mxCell id="-m94468hQOehgDGmweYX-40" value="subscribed" style="edgeLabel;html=1;align=center;verticalAlign=middle;resizable=0;points=[];" parent="-m94468hQOehgDGmweYX-39" connectable="0" vertex="1">
                    <mxGeometry x="0.0095" y="-4" relative="1" as="geometry">
                        <mxPoint x="2" y="-14" as="offset"/>
                    </mxGeometry>
                </mxCell>
                <mxCell id="-m94468hQOehgDGmweYX-44" style="edgeStyle=orthogonalEdgeStyle;rounded=0;orthogonalLoop=1;jettySize=auto;html=1;entryX=0;entryY=0.5;entryDx=0;entryDy=0;" parent="1" source="-m94468hQOehgDGmweYX-38" target="-m94468hQOehgDGmweYX-24" edge="1">
                    <mxGeometry relative="1" as="geometry">
                        <Array as="points">
                            <mxPoint x="160" y="820"/>
                        </Array>
                    </mxGeometry>
                </mxCell>
                <mxCell id="-m94468hQOehgDGmweYX-50" value="6" style="edgeLabel;html=1;align=center;verticalAlign=middle;resizable=0;points=[];" parent="-m94468hQOehgDGmweYX-44" connectable="0" vertex="1">
                    <mxGeometry x="-0.8038" relative="1" as="geometry">
                        <mxPoint as="offset"/>
                    </mxGeometry>
                </mxCell>
                <mxCell id="-m94468hQOehgDGmweYX-51" value="publishes valid ones" style="edgeLabel;html=1;align=center;verticalAlign=middle;resizable=0;points=[];" parent="-m94468hQOehgDGmweYX-44" connectable="0" vertex="1">
                    <mxGeometry x="0.0868" relative="1" as="geometry">
                        <mxPoint x="12" y="-10" as="offset"/>
                    </mxGeometry>
                </mxCell>
                <mxCell id="-m94468hQOehgDGmweYX-47" style="edgeStyle=orthogonalEdgeStyle;rounded=0;orthogonalLoop=1;jettySize=auto;html=1;" parent="1" source="-m94468hQOehgDGmweYX-38" edge="1">
                    <mxGeometry relative="1" as="geometry">
                        <mxPoint x="50" y="820" as="targetPoint"/>
                    </mxGeometry>
                </mxCell>
                <mxCell id="-m94468hQOehgDGmweYX-48" value="leverages" style="edgeLabel;html=1;align=center;verticalAlign=middle;resizable=0;points=[];" parent="-m94468hQOehgDGmweYX-47" connectable="0" vertex="1">
                    <mxGeometry x="0.234" y="1" relative="1" as="geometry">
                        <mxPoint as="offset"/>
                    </mxGeometry>
                </mxCell>
                <mxCell id="-m94468hQOehgDGmweYX-49" value="5" style="edgeLabel;html=1;align=center;verticalAlign=middle;resizable=0;points=[];" parent="-m94468hQOehgDGmweYX-47" connectable="0" vertex="1">
                    <mxGeometry x="-0.1064" y="1" relative="1" as="geometry">
                        <mxPoint as="offset"/>
                    </mxGeometry>
                </mxCell>
                <mxCell id="-m94468hQOehgDGmweYX-38" value="Santization Processor" style="rounded=0;whiteSpace=wrap;html=1;" parent="1" vertex="1">
                    <mxGeometry x="95" y="680" width="120" height="40" as="geometry"/>
                </mxCell>
                <mxCell id="-m94468hQOehgDGmweYX-41" style="edgeStyle=orthogonalEdgeStyle;rounded=0;orthogonalLoop=1;jettySize=auto;html=1;entryX=1;entryY=0.5;entryDx=0;entryDy=0;" parent="1" source="-m94468hQOehgDGmweYX-23" target="-m94468hQOehgDGmweYX-37" edge="1">
                    <mxGeometry relative="1" as="geometry"/>
                </mxCell>
                <mxCell id="-m94468hQOehgDGmweYX-42" value="3 publishes event" style="edgeLabel;html=1;align=center;verticalAlign=middle;resizable=0;points=[];" parent="-m94468hQOehgDGmweYX-41" connectable="0" vertex="1">
                    <mxGeometry x="0.425" y="4" relative="1" as="geometry">
                        <mxPoint x="64" y="-14" as="offset"/>
                    </mxGeometry>
                </mxCell>
                <mxCell id="-m94468hQOehgDGmweYX-43" value="4" style="text;html=1;align=center;verticalAlign=middle;whiteSpace=wrap;rounded=0;" parent="1" vertex="1">
                    <mxGeometry x="120" y="650" width="60" height="30" as="geometry"/>
                </mxCell>
                <mxCell id="-m94468hQOehgDGmweYX-45" value="Virus Scan Svc" style="rounded=0;whiteSpace=wrap;html=1;" parent="1" vertex="1">
                    <mxGeometry x="10" y="820" width="120" height="60" as="geometry"/>
                </mxCell>
                <mxCell id="-m94468hQOehgDGmweYX-52" value="topic - for delivery" style="rounded=0;whiteSpace=wrap;html=1;" parent="1" vertex="1">
                    <mxGeometry x="320" y="920" width="120" height="40" as="geometry"/>
                </mxCell>
                <mxCell id="-m94468hQOehgDGmweYX-53" style="edgeStyle=orthogonalEdgeStyle;rounded=0;orthogonalLoop=1;jettySize=auto;html=1;entryX=0.5;entryY=0;entryDx=0;entryDy=0;" parent="1" source="-m94468hQOehgDGmweYX-24" target="-m94468hQOehgDGmweYX-52" edge="1">
                    <mxGeometry relative="1" as="geometry">
                        <Array as="points">
                            <mxPoint x="760" y="820"/>
                            <mxPoint x="760" y="900"/>
                            <mxPoint x="380" y="900"/>
                        </Array>
                    </mxGeometry>
                </mxCell>
                <mxCell id="-m94468hQOehgDGmweYX-54" value="8 publishes to send" style="edgeLabel;html=1;align=center;verticalAlign=middle;resizable=0;points=[];" parent="-m94468hQOehgDGmweYX-53" connectable="0" vertex="1">
                    <mxGeometry x="0.2036" y="2" relative="1" as="geometry">
                        <mxPoint x="-165" y="-12" as="offset"/>
                    </mxGeometry>
                </mxCell>
                <mxCell id="-m94468hQOehgDGmweYX-59" style="edgeStyle=orthogonalEdgeStyle;rounded=0;orthogonalLoop=1;jettySize=auto;html=1;entryX=0.5;entryY=1;entryDx=0;entryDy=0;" parent="1" source="-m94468hQOehgDGmweYX-55" target="-m94468hQOehgDGmweYX-52" edge="1">
                    <mxGeometry relative="1" as="geometry"/>
                </mxCell>
                <mxCell id="-m94468hQOehgDGmweYX-60" value="subscribed" style="edgeLabel;html=1;align=center;verticalAlign=middle;resizable=0;points=[];" parent="-m94468hQOehgDGmweYX-59" connectable="0" vertex="1">
                    <mxGeometry x="-0.0667" relative="1" as="geometry">
                        <mxPoint x="-40" as="offset"/>
                    </mxGeometry>
                </mxCell>
                <mxCell id="-m94468hQOehgDGmweYX-63" value="leverages&amp;nbsp;" style="edgeStyle=orthogonalEdgeStyle;rounded=0;orthogonalLoop=1;jettySize=auto;html=1;" parent="1" source="-m94468hQOehgDGmweYX-55" target="-m94468hQOehgDGmweYX-62" edge="1">
                    <mxGeometry y="-30" relative="1" as="geometry">
                        <mxPoint as="offset"/>
                    </mxGeometry>
                </mxCell>
                <mxCell id="-m94468hQOehgDGmweYX-64" style="edgeStyle=orthogonalEdgeStyle;rounded=0;orthogonalLoop=1;jettySize=auto;html=1;entryX=0;entryY=0.5;entryDx=0;entryDy=0;" parent="1" source="-m94468hQOehgDGmweYX-55" target="-m94468hQOehgDGmweYX-61" edge="1">
                    <mxGeometry relative="1" as="geometry"/>
                </mxCell>
                <mxCell id="-m94468hQOehgDGmweYX-65" value="9 delivers" style="edgeLabel;html=1;align=center;verticalAlign=middle;resizable=0;points=[];" parent="-m94468hQOehgDGmweYX-64" connectable="0" vertex="1">
                    <mxGeometry x="0.1" y="-1" relative="1" as="geometry">
                        <mxPoint y="-11" as="offset"/>
                    </mxGeometry>
                </mxCell>
                <mxCell id="-m94468hQOehgDGmweYX-55" value="delivery Processor" style="rounded=0;whiteSpace=wrap;html=1;" parent="1" vertex="1">
                    <mxGeometry x="320" y="1020" width="120" height="40" as="geometry"/>
                </mxCell>
                <mxCell id="-m94468hQOehgDGmweYX-56" style="edgeStyle=orthogonalEdgeStyle;rounded=0;orthogonalLoop=1;jettySize=auto;html=1;" parent="1" source="-m94468hQOehgDGmweYX-24" edge="1">
                    <mxGeometry relative="1" as="geometry">
                        <mxPoint x="520" y="585" as="targetPoint"/>
                        <Array as="points">
                            <mxPoint x="770" y="810"/>
                            <mxPoint x="770" y="585"/>
                            <mxPoint x="520" y="585"/>
                        </Array>
                    </mxGeometry>
                </mxCell>
                <mxCell id="-m94468hQOehgDGmweYX-57" value="7&amp;nbsp;" style="edgeLabel;html=1;align=center;verticalAlign=middle;resizable=0;points=[];" parent="-m94468hQOehgDGmweYX-56" connectable="0" vertex="1">
                    <mxGeometry x="-0.8586" y="2" relative="1" as="geometry">
                        <mxPoint x="29" y="-118" as="offset"/>
                    </mxGeometry>
                </mxCell>
                <mxCell id="-m94468hQOehgDGmweYX-58" value="email ready for delivery" style="edgeLabel;html=1;align=center;verticalAlign=middle;resizable=0;points=[];" parent="-m94468hQOehgDGmweYX-56" connectable="0" vertex="1">
                    <mxGeometry x="-0.3345" relative="1" as="geometry">
                        <mxPoint y="13" as="offset"/>
                    </mxGeometry>
                </mxCell>
                <mxCell id="-m94468hQOehgDGmweYX-61" value="target device" style="rounded=0;whiteSpace=wrap;html=1;" parent="1" vertex="1">
                    <mxGeometry x="600" y="1020" width="120" height="40" as="geometry"/>
                </mxCell>
                <mxCell id="-m94468hQOehgDGmweYX-62" value="client connection" style="rounded=0;whiteSpace=wrap;html=1;" parent="1" vertex="1">
                    <mxGeometry x="320" y="1100" width="120" height="40" as="geometry"/>
                </mxCell>
                <mxCell id="-m94468hQOehgDGmweYX-67" style="edgeStyle=orthogonalEdgeStyle;rounded=0;orthogonalLoop=1;jettySize=auto;html=1;entryX=0.5;entryY=1;entryDx=0;entryDy=0;entryPerimeter=0;" parent="1" source="-m94468hQOehgDGmweYX-55" target="-m94468hQOehgDGmweYX-30" edge="1">
                    <mxGeometry relative="1" as="geometry"/>
                </mxCell>
                <mxCell id="-m94468hQOehgDGmweYX-68" value="10 update email delivered" style="edgeLabel;html=1;align=center;verticalAlign=middle;resizable=0;points=[];" parent="-m94468hQOehgDGmweYX-67" connectable="0" vertex="1">
                    <mxGeometry x="0.428" y="2" relative="1" as="geometry">
                        <mxPoint x="2" y="-3" as="offset"/>
                    </mxGeometry>
                </mxCell>
                <mxCell id="-m94468hQOehgDGmweYX-70" value="background job" style="rounded=0;whiteSpace=wrap;html=1;" parent="1" vertex="1">
                    <mxGeometry x="240" y="570" width="120" height="60" as="geometry"/>
                </mxCell>
            </root>
        </mxGraphModel>
    </diagram>
</mxfile>